<svg xmlns="http://www.w3.org/2000/svg" xmlns:xlink="http://www.w3.org/1999/xlink" width="110" height="280">
    <defs>
        <linearGradient id="grad1" x1="0%" y1="100%" x2="0%" y2="0%">
            <stop id="currentTempPercent" offset="0%" style="stop-color:red" />
            <stop offset="0%" style="stop-color:white" />
        </linearGradient>
    </defs>

    <rect x="35" y="15" width="10" height="210" stroke="black" stroke-width="2" fill="url(#grad1)" />
    <circle cx="40" cy="250" r="25" stroke="black" stroke-width="2" fill="red" />
    <line x1="0" y1="225" x2="45" y2="225" stroke="blue" stroke-width="2" />
    <line x1="0" y1="195" x2="45" y2="195" stroke="blue" stroke-width="2" />
    <line x1="0" y1="165" x2="45" y2="165" stroke="blue" stroke-width="2" />
    <line x1="0" y1="135" x2="45" y2="135" stroke="blue" stroke-width="2" />
    <line x1="0" y1="105" x2="45" y2="105" stroke="blue" stroke-width="2" />
    <line x1="0" y1="75" x2="45" y2="75" stroke="blue" stroke-width="2" />
    <line x1="0" y1="45" x2="45" y2="45" stroke="blue" stroke-width="2" />
    <line x1="0" y1="15" x2="45" y2="15" stroke="blue" stroke-width="2" />

    <g id="setTemp" transform='translate(0,-0)'>
        <line x1="47" y1="225" x2="55" y2="220" stroke="green" stroke-width="3" />
        <line x1="47" y1="225" x2="55" y2="230" stroke="green" stroke-width="3" />
        <line x1="47" y1="225" x2="105" y2="225" stroke="green" stroke-width="3" />
        <text id="setTempValue" font-size="16px" x="59" y="223">--.-°C</text>
    </g>

    <text font-size="16px">
        <tspan x="0" y="13">25°C</tspan>
        <tspan x="0" y="43">24°C</tspan>
        <tspan x="0" y="73">23°C</tspan>
        <tspan x="0" y="103">22°C</tspan>
        <tspan x="0" y="133">21°C</tspan>
        <tspan x="0" y="163">20°C</tspan>
        <tspan x="0" y="193">19°C</tspan>
        <tspan x="0" y="223">18°C</tspan>
    </text>

    Sorry, your browser does not support inline SVG.
</svg>